<svg xmlns="http://www.w3.org/2000/svg" width="900" height="600" viewBox="0 0 30 20">
  <rect width="30" height="20" fill="#DE2910"/>
  <!-- grande étoile -->
  <polygon points="6,3 6.588,4.809 8.5,4.809 6.95,5.941 7.538,7.75 6,6.618 4.462,7.75 5.05,5.941 3.5,4.809 5.412,4.809"
           fill="#FFDE00"/>
  <!-- petites étoiles -->
  <polygon points="10,2.5 10.309,3.45 11.3,3.45 10.5,4.05 10.809,5 10,4.4 9.191,5 9.5,4.05 8.7,3.45 9.691,3.45"
           fill="#FFDE00" transform="rotate(20 10 3.7)"/>
  <polygon points="11.7,4.1 12.009,5.05 13,5.05 12.2,5.65 12.509,6.6 11.7,6 10.891,6.6 11.2,5.65 10.4,5.05 11.391,5.05"
           fill="#FFDE00" transform="rotate(8 11.7 5.5)"/>
  <polygon points="11.7,6.2 12.009,7.15 13,7.15 12.2,7.75 12.509,8.7 11.7,8.1 10.891,8.7 11.2,7.75 10.4,7.15 11.391,7.15"
           fill="#FFDE00" transform="rotate(-8 11.7 7.6)"/>
  <polygon points="10,7.8 10.309,8.75 11.3,8.75 10.5,9.35 10.809,10.3 10,9.7 9.191,10.3 9.5,9.35 8.7,8.75 9.691,8.75"
           fill="#FFDE00" transform="rotate(-20 10 9)"/>
</svg>
